<svg id="レイヤー_1" data-name="レイヤー 1" xmlns="http://www.w3.org/2000/svg" viewBox="0 0 43.9 71.6"><defs><style>.cls-1{fill:#fff;}</style></defs><title>名称未設定-4</title><path d="M37.65,30q4.65-6.6,4.65-11.9,0-9.41-6-13.75T21.3,0A25.08,25.08,0,0,0,10.05,2.35,19,19,0,0,0,2.85,8.1,11.26,11.26,0,0,0,.4,14.6a5.91,5.91,0,0,0,1.3,4A4.34,4.34,0,0,0,5.2,20.1a4.22,4.22,0,0,0,3.5-1.5,5,5,0,0,0,1.2-3.2A6.2,6.2,0,0,0,8.1,11a9.86,9.86,0,0,1,4.3-5.1,13.51,13.51,0,0,1,7.3-2q6.6,0,9.45,4.45A20.1,20.1,0,0,1,32,19.4a21.1,21.1,0,0,1-2.95,10.3,39.55,39.55,0,0,1-4.32,6.1h8.06A51.52,51.52,0,0,0,37.65,30Z"/><path class="cls-1" d="M38.3,63.2q-2.59,1.39-8.1,1.4-3.79,0-6-.1L6.5,64q.71-3.41,4.95-8.3A95.89,95.89,0,0,1,22.7,45a110.69,110.69,0,0,0,10.09-9.2H24.73a68.93,68.93,0,0,1-5,5.3l-4,3.7a121.51,121.51,0,0,0-8.6,8.65,32.75,32.75,0,0,0-5,7.95A24.29,24.29,0,0,0,0,71.6H43.3l.6-14h-3Q40.9,61.8,38.3,63.2Z"/></svg>