<svg id="レイヤー_1" data-name="レイヤー 1" xmlns="http://www.w3.org/2000/svg" viewBox="0 0 47.92 18.62"><defs><style>.cls-1{fill:#323333}</style></defs><g id="_" data-name="◎"><path class="cls-1" d="M4.7 4.11a.25.25 0 0 0 .21-.24V3.3a.23.23 0 0 0-.09-.19.22.22 0 0 0-.19-.06 4 4 0 0 0-3.4 4v2.07h-1a.25.25 0 0 0-.23.25v.51a.25.25 0 0 0 .25.25h1v4.43a.25.25 0 0 0 .25.25H2a.25.25 0 0 0 .25-.25v-4.43h2.41a.25.25 0 0 0 .25-.25v-.51a.25.25 0 0 0-.25-.25H2.28V7A2.83 2.83 0 0 1 4.7 4.11zM15.19 6.81h-.57a.25.25 0 0 0-.25.25v4.27a2.86 2.86 0 0 1-2.71 2.37 3 3 0 0 1-2.72-2.6v-4a.25.25 0 0 0-.25-.25h-.57a.25.25 0 0 0-.25.25V11.07a4.25 4.25 0 0 0 .57 1.84A3.64 3.64 0 0 0 14 14l.41-.38v1a.25.25 0 0 0 .25.25h.57a.25.25 0 0 0 .25-.25V7.06a.25.25 0 0 0-.29-.25zM22.25 6.86a.22.22 0 0 0-.19-.06 3.39 3.39 0 0 0-2 .86 4.27 4.27 0 0 0-.36.38v-1a.25.25 0 0 0-.25-.25h-.51a.25.25 0 0 0-.25.25v7.53a.25.25 0 0 0 .25.25h.51a.25.25 0 0 0 .25-.25v-4.28a2.89 2.89 0 0 1 2.43-2.45.26.26 0 0 0 .23-.25v-.54a.25.25 0 0 0-.11-.19zM38 6.94a.26.26 0 0 0-.21-.11h-.66a.25.25 0 0 0-.23.15l-2.42 5.49L32.08 7a.25.25 0 0 0-.23-.15h-.68a.26.26 0 0 0-.21.11.29.29 0 0 0 0 .24l3 6.8-1.85 4.29a.29.29 0 0 0 0 .24.26.26 0 0 0 .21.11H33a.25.25 0 0 0 .23-.15l2-4.68L38 7.18a.26.26 0 0 0 0-.24zM47.67 6.84H47a.25.25 0 0 0-.25.25v1l-.37-.31A3.75 3.75 0 0 0 44 6.86a3.92 3.92 0 0 0-3.87 4 3.93 3.93 0 0 0 3.87 4 3.72 3.72 0 0 0 2.43-.89l.38-.3v.94a.25.25 0 0 0 .25.25h.64a.25.25 0 0 0 .25-.25V7.09a.25.25 0 0 0-.28-.25zM44 8a2.73 2.73 0 0 1 2.73 2.42v.77a2.74 2.74 0 0 1-5.47-.37A2.72 2.72 0 0 1 44 8z"/><rect class="cls-1" x="25.94" y="6.83" width="1.1" height="8.03" rx=".25" ry=".25"/><path class="cls-1" d="M25.41 4.56a.15.15 0 0 1-.11 0 .17.17 0 0 1-.06-.2l.37-1.15-1-.73a.18.18 0 0 1-.07-.19.19.19 0 0 1 .17-.13H26L26.32 1a.19.19 0 0 1 .17-.12.16.16 0 0 1 .17.12L27 2.12h1.22a.18.18 0 0 1 .11.32l-1 .72.38 1.16a.18.18 0 0 1-.27.2l-1-.71-1 .71a.14.14 0 0 1-.03.04zm1.39-1l.45.32-.17-.53zm-.88-.2l-.17.52.44-.32zM26 3l.46.34L27 3l-.18-.54h-.57zm-.76-.55l.46.33.1-.33zm1.89 0l.11.32.44-.32zm-.84-.36h.35l-.18-.53z"/><circle class="cls-1" cx="26.49" cy=".23" r=".21"/><path class="cls-1" d="M26.49.46a.23.23 0 0 1-.23-.23.23.23 0 0 1 .23-.23.23.23 0 0 1 .23.23.23.23 0 0 1-.23.23zm0-.43a.2.2 0 1 0 .2.2.2.2 0 0 0-.2-.23z"/><circle class="cls-1" cx="23.95" cy="2.14" r=".21"/><path class="cls-1" d="M24 2.37h-.06a.26.26 0 0 1-.14-.11.23.23 0 0 1 .2-.34.19.19 0 0 1 .14.11.2.2 0 0 1 0 .17.23.23 0 0 1-.14.17zm0-.43h-.1a.18.18 0 0 0-.09.12.22.22 0 0 0 0 .16.22.22 0 0 0 .12.09.18.18 0 0 0 .16 0 .16.16 0 0 0 .09-.12.16.16 0 0 0 0-.15A.14.14 0 0 0 24 2z"/><circle class="cls-1" cx="24.9" cy="4.95" r=".21"/><path class="cls-1" d="M24.89 5.18a.24.24 0 0 1-.18-.37.24.24 0 0 1 .15-.09.21.21 0 0 1 .17 0 .23.23 0 0 1 0 .32.25.25 0 0 1-.14.14zm-.16-.35a.22.22 0 0 0 0 .28.21.21 0 0 0 .29 0 .2.2 0 0 0-.19-.32.25.25 0 0 0-.1.04z"/><circle class="cls-1" cx="28.11" cy="4.95" r=".21"/><path class="cls-1" d="M28.11 5.18a.21.21 0 0 1-.18-.09.23.23 0 1 1 .32 0 .24.24 0 0 1-.14.09zM28 5.07a.2.2 0 0 0 .28 0 .2.2 0 1 0-.28 0z"/><circle class="cls-1" cx="29.02" cy="2.14" r=".21"/><path class="cls-1" d="M29 2.37a.22.22 0 0 1-.22-.16.24.24 0 0 1 .22-.29.25.25 0 0 1 .17 0 .19.19 0 0 1 .11.14.22.22 0 0 1-.15.28zm0-.43a.17.17 0 0 0-.12.1.19.19 0 0 0 0 .15.23.23 0 0 0 .1.12.25.25 0 0 0 .15 0 .23.23 0 0 0 .12-.1.2.2 0 0 0 0-.15.16.16 0 0 0-.13-.06.17.17 0 0 0-.12-.06z"/></g></svg>